<svg xmlns="http://www.w3.org/2000/svg" viewBox="0 0 632.97 563.77">
  <title>blocking-apis-messaging</title>
  <rect x="92.24" y="77.34" width="20.1" height="183.35" fill="#f2aea7" stroke="#a7271a" stroke-miterlimit="10"/>
  <rect x="92.24" y="304.82" width="20.1" height="133.35" fill="#f2f2f2" stroke="#666" stroke-miterlimit="10"/>
  <rect x="159.7" y="87.34" width="20.1" height="125.2" fill="#eb857b" stroke="#a7271a" stroke-miterlimit="10"/>
  <rect x="221.9" y="107.34" width="20.1" height="42.89" fill="#e55d4f" stroke="#a7271a" stroke-miterlimit="10"/>
  <rect x="221.9" y="162.57" width="20.1" height="42.89" fill="#e55d4f" stroke="#a7271a" stroke-miterlimit="10"/>
  <rect x="221.9" y="217.8" width="20.1" height="42.89" fill="#e55d4f" stroke="#a7271a" stroke-miterlimit="10"/>
  <g>
    <line x1="120.75" y1="254.5" x2="218.83" y2="254.5" fill="#de3423" stroke="#de3423" stroke-miterlimit="10" stroke-width="2"/>
    <polygon points="124 259.63 124 249.82 114.19 254.72 124 259.63" fill="#de3423"/>
  </g>
  <g>
    <line x1="47.75" y1="271.5" x2="65.83" y2="271.5" fill="#de3423" stroke="#de3423" stroke-miterlimit="10" stroke-width="2"/>
    <polygon points="51 276.63 51 266.82 41.19 271.72 51 276.63" fill="#de3423"/>
  </g>
  <g>
    <line x1="59.27" y1="62.95" x2="41.19" y2="62.95" fill="#de3423" stroke="#de3423" stroke-miterlimit="10" stroke-width="2"/>
    <polygon points="56 57.82 56 67.63 65.81 62.72 56 57.82" fill="#de3423"/>
  </g>
  <g>
    <line x1="212.27" y1="225.95" x2="114.19" y2="225.95" fill="#de3423" stroke="#de3423" stroke-miterlimit="10" stroke-width="2"/>
    <polygon points="209 220.82 209 230.63 218.81 225.72 209 220.82" fill="#de3423"/>
  </g>
  <g>
    <line x1="151.81" y1="89.5" x2="114.71" y2="80.91" fill="#de3423" stroke="#de3423" stroke-miterlimit="10" stroke-width="2"/>
    <polygon points="149.78 83.76 147.57 93.32 158.24 90.75 149.78 83.76" fill="#de3423"/>
  </g>
  <g>
    <line x1="120.09" y1="215.08" x2="157.18" y2="206.45" fill="#de3423" stroke="#de3423" stroke-miterlimit="10" stroke-width="2"/>
    <polygon points="124.44 219.33 122.21 209.78 113.77 216.78 124.44 219.33" fill="#de3423"/>
  </g>
  <g>
    <line x1="212.87" y1="108.77" x2="183.67" y2="101.54" fill="#de3423" stroke="#de3423" stroke-miterlimit="10" stroke-width="2"/>
    <polygon points="210.93 103 208.57 112.53 219.27 110.13 210.93 103" fill="#de3423"/>
  </g>
  <g>
    <line x1="212.89" y1="165.71" x2="183.65" y2="158.63" fill="#de3423" stroke="#de3423" stroke-miterlimit="10" stroke-width="2"/>
    <polygon points="210.92 159.95 208.61 169.49 219.3 167.03 210.92 159.95" fill="#de3423"/>
  </g>
  <g>
    <line x1="188.01" y1="208.31" x2="217.23" y2="201.14" fill="#de3423" stroke="#de3423" stroke-miterlimit="10" stroke-width="2"/>
    <polygon points="192.41 212.51 190.08 202.98 181.72 210.08 192.41 212.51" fill="#de3423"/>
  </g>
  <g>
    <line x1="190.02" y1="151.31" x2="219.23" y2="144.13" fill="#de3423" stroke="#de3423" stroke-miterlimit="10" stroke-width="2"/>
    <polygon points="194.42 155.52 192.07 145.99 183.72 153.09 194.42 155.52" fill="#de3423"/>
  </g>
  <g>
    <line x1="149.87" y1="319.78" x2="120.67" y2="312.2" fill="#999" stroke="#999" stroke-miterlimit="10" stroke-width="2.05"/>
    <polygon points="147.93 313.74 145.57 323.72 156.27 321.2 147.93 313.74" fill="#999"/>
  </g>
  <g>
    <line x1="149.89" y1="379.46" x2="120.65" y2="372.04" fill="#999" stroke="#999" stroke-miterlimit="10" stroke-width="2.05"/>
    <polygon points="147.92 373.43 145.61 383.42 156.3 380.84 147.92 373.43" fill="#999"/>
  </g>
  <g>
    <line x1="125.01" y1="424.1" x2="154.23" y2="416.6" fill="#999" stroke="#999" stroke-miterlimit="10" stroke-width="2.05"/>
    <polygon points="129.41 428.51 127.08 418.52 118.72 425.97 129.41 428.51" fill="#999"/>
  </g>
  <g>
    <line x1="127.02" y1="364.37" x2="156.23" y2="356.84" fill="#999" stroke="#999" stroke-miterlimit="10" stroke-width="2.05"/>
    <polygon points="131.42 368.77 129.07 358.79 120.72 366.24 131.42 368.77" fill="#999"/>
  </g>
  <line x1="78" y1="501.42" x2="78" y2="42.21" stroke="#000" stroke-miterlimit="10" stroke-width="2.1"/>
  <line x1="276.97" y1="281.82" y2="281.82" stroke="#000" stroke-miterlimit="10" stroke-width="2"/>
  <line x1="91.21" y1="501.42" x2="64.79" y2="501.42" stroke="#000" stroke-miterlimit="10" stroke-width="2"/>
  <line x1="91.21" y1="42.21" x2="64.79" y2="42.21" stroke="#000" stroke-miterlimit="10" stroke-width="2"/>
  <path d="M71,214.1c0-8.74-2.56-17.26-13.76-17.26V190C68.47,190,71,181.5,71,173.19c0-13.64-1.28-29.62-1.28-44.11,0-21.09,5.92-27.27,17.44-27.27h5.76v6.61H87.67c-9.44,0-12,6.6-12,21.52,0,13,1,27.49,1,40.91,0,12.57-1.76,19.6-8.16,22.16v0.85c6.4,2.56,8.16,10,8.16,22.16,0,15.34-1,27.06-1,40.91,0,14.91,2.56,21.95,12,21.95h5.28v6.18H87.19c-11.52,0-17.44-5.75-17.44-27.27C69.75,242,71,228.8,71,214.1Z" transform="translate(-30 -24.18)" fill="#de3423"/>
  <g>
    <path d="M146.42,496.06h-3.6v-2.48h10.12v2.48h-3.58v10.56h-2.94V496.06Z" transform="translate(-30 -24.18)" fill="#de3423"/>
    <path d="M154.73,492.6h2.94V496l-0.14,1.78a4.56,4.56,0,0,1,3.06-1.36c2.16,0,3.08,1.52,3.08,4v6.16h-2.94v-5.78c0-1.44-.38-1.88-1.22-1.88a2.51,2.51,0,0,0-1.84,1v6.7h-2.94v-14Z" transform="translate(-30 -24.18)" fill="#de3423"/>
    <path d="M166.16,496.71h2.4l0.2,1.74h0.08a3.32,3.32,0,0,1,2.82-2,2.85,2.85,0,0,1,1.18.2l-0.48,2.54a3.72,3.72,0,0,0-1.08-.16,2.46,2.46,0,0,0-2.18,1.82v5.76h-2.94v-9.92Z" transform="translate(-30 -24.18)" fill="#de3423"/>
    <path d="M178,496.46c2.82,0,4.22,2.06,4.22,4.76a5.82,5.82,0,0,1-.12,1.24h-5.94a2.4,2.4,0,0,0,2.58,2.16,4,4,0,0,0,2.14-.66l1,1.78a6.49,6.49,0,0,1-3.52,1.12A5.22,5.22,0,0,1,178,496.46Zm1.72,4.18c0-1.14-.48-1.94-1.66-1.94a2,2,0,0,0-1.92,1.94h3.58Z" transform="translate(-30 -24.18)" fill="#de3423"/>
    <path d="M189.28,500.25a1.38,1.38,0,0,0-1.56-1.44,5.35,5.35,0,0,0-2.64.9l-1-1.94a8.21,8.21,0,0,1,4.24-1.3c2.54,0,3.94,1.44,3.94,4.48v5.68h-2.4l-0.22-1h-0.06a4.36,4.36,0,0,1-2.9,1.26,2.85,2.85,0,0,1-2.94-3C183.7,501.79,185.36,500.65,189.28,500.25Zm-1.64,4.34a2.21,2.21,0,0,0,1.64-.84V502c-2.1.28-2.78,0.88-2.78,1.64A1,1,0,0,0,187.64,504.59Z" transform="translate(-30 -24.18)" fill="#de3423"/>
    <path d="M198.34,496.46a3.25,3.25,0,0,1,2.44,1L200.66,496V492.6h2.94v14h-2.4l-0.2-1h-0.08a3.93,3.93,0,0,1-2.64,1.22c-2.46,0-4.06-2-4.06-5.2S196.24,496.46,198.34,496.46Zm0.7,8a1.86,1.86,0,0,0,1.62-.9v-4.06a2.35,2.35,0,0,0-1.64-.64c-0.94,0-1.78.88-1.78,2.76S197.9,504.47,199,504.47Z" transform="translate(-30 -24.18)" fill="#de3423"/>
    <path d="M210.52,493.58h2.94v7.3c0,2.56.8,3.44,2.26,3.44s2.32-.88,2.32-3.44v-7.3h2.84v7c0,4.38-1.78,6.28-5.16,6.28s-5.2-1.9-5.2-6.28v-7Z" transform="translate(-30 -24.18)" fill="#de3423"/>
    <path d="M223.9,503.65a4.28,4.28,0,0,0,2.56,1c0.88,0,1.26-.32,1.26-0.84s-1-1-2-1.36c-1.2-.46-2.62-1.28-2.62-2.92,0-1.84,1.5-3.1,3.8-3.1a5.71,5.71,0,0,1,3.5,1.26l-1.32,1.76a3.66,3.66,0,0,0-2.1-.84c-0.76,0-1.12.28-1.12,0.78s0.92,0.88,1.94,1.26c1.26,0.46,2.68,1.16,2.68,3s-1.42,3.2-4.08,3.2a6.4,6.4,0,0,1-3.8-1.38Z" transform="translate(-30 -24.18)" fill="#de3423"/>
    <path d="M237.54,500.25a1.38,1.38,0,0,0-1.56-1.44,5.35,5.35,0,0,0-2.64.9l-1-1.94a8.21,8.21,0,0,1,4.24-1.3c2.54,0,3.94,1.44,3.94,4.48v5.68h-2.4l-0.22-1H237.8a4.36,4.36,0,0,1-2.9,1.26,2.85,2.85,0,0,1-2.94-3C232,501.79,233.62,500.65,237.54,500.25Zm-1.64,4.34a2.21,2.21,0,0,0,1.64-.84V502c-2.1.28-2.78,0.88-2.78,1.64A1,1,0,0,0,235.9,504.59Z" transform="translate(-30 -24.18)" fill="#de3423"/>
    <path d="M243.79,506.33v-0.08a1.9,1.9,0,0,1-.92-1.68,2.4,2.4,0,0,1,1.12-1.86v-0.08a3.18,3.18,0,0,1-1.34-2.58c0-2.38,2-3.58,4.1-3.58a4.61,4.61,0,0,1,1.54.24h3.62v2.14h-1.58a2.64,2.64,0,0,1,.32,1.3c0,2.28-1.72,3.34-3.9,3.34a3.94,3.94,0,0,1-1.2-.2,0.84,0.84,0,0,0-.36.74c0,0.5.4,0.74,1.5,0.74h1.6c2.44,0,3.78.74,3.78,2.52,0,2.06-2.14,3.56-5.54,3.56-2.32,0-4.16-.76-4.16-2.52A2.33,2.33,0,0,1,243.79,506.33ZM247,509c1.32,0,2.28-.54,2.28-1.22s-0.54-.78-1.52-0.78h-1a5.77,5.77,0,0,1-1.4-.12,1.3,1.3,0,0,0-.54,1C244.79,508.61,245.68,509,247,509Zm1.12-9a1.38,1.38,0,1,0-2.72,0A1.39,1.39,0,1,0,248.12,500Z" transform="translate(-30 -24.18)" fill="#de3423"/>
    <path d="M257.42,496.46c2.82,0,4.22,2.06,4.22,4.76a5.82,5.82,0,0,1-.12,1.24h-5.94a2.4,2.4,0,0,0,2.58,2.16,4,4,0,0,0,2.14-.66l1,1.78a6.49,6.49,0,0,1-3.52,1.12A5.22,5.22,0,0,1,257.42,496.46Zm1.72,4.18c0-1.14-.48-1.94-1.66-1.94a2,2,0,0,0-1.92,1.94h3.58Z" transform="translate(-30 -24.18)" fill="#de3423"/>
  </g>
  <g>
    <path d="M143.86,25.58h4.46c2.72,0,4.82.74,4.82,3.24a2.86,2.86,0,0,1-2.2,2.82v0.08c1.86,0.34,2.84,1.32,2.84,3.06,0,2.66-2.24,3.84-5.08,3.84h-4.84v-13Zm4.32,5.26c1.44,0,2.08-.62,2.08-1.6s-0.68-1.38-2-1.38h-1.4v3h1.36Zm0.28,5.5c1.6,0,2.44-.6,2.44-1.78s-0.82-1.64-2.44-1.64h-1.64v3.42h1.64Z" transform="translate(-30 -24.18)" fill="#de3423"/>
    <path d="M155.71,24.6h2.94V35.67c0,0.62.28,0.82,0.52,0.82a1.23,1.23,0,0,0,.36,0l0.36,2.18a3.84,3.84,0,0,1-1.48.24c-2,0-2.7-1.32-2.7-3.32V24.6Z" transform="translate(-30 -24.18)" fill="#de3423"/>
    <path d="M165.7,28.46a4.86,4.86,0,0,1,4.82,5.2,4.84,4.84,0,1,1-9.66,0A4.86,4.86,0,0,1,165.7,28.46Zm0,8c1.2,0,1.82-1.1,1.82-2.82s-0.62-2.82-1.82-2.82-1.82,1.1-1.82,2.82S164.48,36.49,165.7,36.49Z" transform="translate(-30 -24.18)" fill="#de3423"/>
    <path d="M177.12,28.46a4,4,0,0,1,2.9,1.14l-1.34,1.82a2.12,2.12,0,0,0-1.38-.58c-1.42,0-2.32,1.1-2.32,2.82s0.94,2.82,2.22,2.82a2.86,2.86,0,0,0,1.78-.72l1.18,1.86a5.15,5.15,0,0,1-3.3,1.24c-2.76,0-4.9-1.9-4.9-5.2A5,5,0,0,1,177.12,28.46Z" transform="translate(-30 -24.18)" fill="#de3423"/>
    <path d="M181.87,24.6h2.86v8h0.08L188,28.71h3.2l-3.48,4.08,3.74,5.84h-3.18L186,34.77l-1.26,1.42v2.44h-2.86v-14Z" transform="translate(-30 -24.18)" fill="#de3423"/>
    <path d="M192.59,25.7a1.71,1.71,0,1,1,1.7,1.54A1.56,1.56,0,0,1,192.59,25.7Zm0.24,3h2.94v9.92h-2.94V28.71Z" transform="translate(-30 -24.18)" fill="#de3423"/>
    <path d="M198.35,28.71h2.4L201,30H201a4.57,4.57,0,0,1,3.18-1.5c2.16,0,3.08,1.52,3.08,4v6.16h-2.94V32.85c0-1.44-.38-1.88-1.22-1.88a2.51,2.51,0,0,0-1.84,1v6.7h-2.94V28.71Z" transform="translate(-30 -24.18)" fill="#de3423"/>
    <path d="M210.59,38.33V38.25a1.9,1.9,0,0,1-.92-1.68,2.4,2.4,0,0,1,1.12-1.86V34.63A3.18,3.18,0,0,1,209.45,32c0-2.38,2-3.58,4.1-3.58a4.61,4.61,0,0,1,1.54.24h3.62v2.14h-1.58a2.65,2.65,0,0,1,.32,1.3c0,2.28-1.72,3.34-3.9,3.34a3.94,3.94,0,0,1-1.2-.2A0.84,0.84,0,0,0,212,36c0,0.5.4,0.74,1.5,0.74h1.6c2.44,0,3.78.74,3.78,2.52,0,2.06-2.14,3.56-5.54,3.56-2.32,0-4.16-.76-4.16-2.52A2.33,2.33,0,0,1,210.59,38.33Zm3.2,2.68c1.32,0,2.28-.54,2.28-1.22S215.54,39,214.56,39h-1a5.77,5.77,0,0,1-1.4-.12,1.3,1.3,0,0,0-.54,1C211.59,40.61,212.47,41,213.79,41Zm1.12-9a1.38,1.38,0,1,0-2.72,0A1.39,1.39,0,1,0,214.92,32Z" transform="translate(-30 -24.18)" fill="#de3423"/>
    <path d="M231,35.53h-4l-0.8,3.1h-3l4.1-13h3.52l4.1,13H231.8Zm-0.6-2.3L230.07,32c-0.36-1.3-.7-2.84-1.06-4.2h-0.08c-0.3,1.38-.66,2.9-1,4.2l-0.32,1.2h2.8Z" transform="translate(-30 -24.18)" fill="#de3423"/>
    <path d="M236.27,25.58H241c2.84,0,5.1,1,5.1,4.2s-2.34,4.42-5.1,4.42h-1.8v4.42h-3v-13Zm4.58,6.28c1.62,0,2.4-.72,2.4-2.08s-0.84-1.86-2.4-1.86h-1.62v3.94h1.62Z" transform="translate(-30 -24.18)" fill="#de3423"/>
    <path d="M248.37,25.58h3v13h-3v-13Z" transform="translate(-30 -24.18)" fill="#de3423"/>
    <path d="M254.59,35.65a4.28,4.28,0,0,0,2.56,1c0.88,0,1.26-.32,1.26-0.84s-1-1-2-1.36c-1.2-.46-2.62-1.28-2.62-2.92,0-1.84,1.5-3.1,3.8-3.1a5.71,5.71,0,0,1,3.5,1.26l-1.32,1.76a3.66,3.66,0,0,0-2.1-.84c-0.76,0-1.12.28-1.12,0.78s0.92,0.88,1.94,1.26c1.26,0.46,2.68,1.16,2.68,3s-1.42,3.2-4.08,3.2a6.4,6.4,0,0,1-3.8-1.38Z" transform="translate(-30 -24.18)" fill="#de3423"/>
  </g>
  <g>
    <path d="M42.47,189.23H39.41v-2.11H48v2.11H45v9h-2.5v-9Z" transform="translate(-30 -24.18)"/>
    <path d="M49.13,202.68H50.5V199H49.32v-0.9a4.39,4.39,0,0,0,1.57-.58H52v5.12h1.18v1.18h-4v-1.18Z" transform="translate(-30 -24.18)"/>
  </g>
  <g>
    <path d="M159.54,184.23h-3.06v-2.11h8.6v2.11h-3v9h-2.5v-9Z" transform="translate(-30 -24.18)"/>
    <path d="M165.87,198c1.61-1.52,2.74-2.6,2.74-3.49a0.85,0.85,0,0,0-.89-1,1.61,1.61,0,0,0-1.12.64l-0.79-.78a2.67,2.67,0,0,1,2.11-1,1.93,1.93,0,0,1,2.08,2c0,1.06-1,2.19-2,3.26a9.65,9.65,0,0,1,1.05-.08h1.27v1.23h-4.43V198Z" transform="translate(-30 -24.18)"/>
  </g>
  <g>
    <path d="M284.2,147.56h-3.06v-2.11h8.6v2.11h-3v9h-2.5v-9Z" transform="translate(-30 -24.18)"/>
    <path d="M291.06,160.5a2,2,0,0,0,1.38.63,0.84,0.84,0,0,0,1-.74c0-.56-0.33-0.9-1.7-0.9v-1c1.13,0,1.49-.34,1.49-0.84a0.67,0.67,0,0,0-.77-0.69,1.75,1.75,0,0,0-1.18.56l-0.73-.89a3,3,0,0,1,2-.8c1.3,0,2.17.63,2.17,1.73a1.48,1.48,0,0,1-1.05,1.4v0a1.56,1.56,0,0,1,1.25,1.54c0,1.17-1.07,1.83-2.34,1.83a2.74,2.74,0,0,1-2.19-.89Z" transform="translate(-30 -24.18)"/>
  </g>
  <g>
    <path d="M284.2,204.89h-3.06v-2.11h8.6v2.11h-3v9h-2.5v-9Z" transform="translate(-30 -24.18)"/>
    <path d="M295.17,218h-0.72v1.51h-1.36V218h-2.73v-1l2.3-3.79h1.79v3.68h0.72V218Zm-2.08-1.11v-1c0-.41,0-1,0.06-1.41h0c-0.16.35-.34,0.71-0.52,1.06l-0.83,1.37h1.33Z" transform="translate(-30 -24.18)"/>
  </g>
  <g>
    <path d="M284.2,259.56h-3.06v-2.11h8.6v2.11h-3v9h-2.5v-9Z" transform="translate(-30 -24.18)"/>
    <path d="M291.05,272.51a2,2,0,0,0,1.36.63,0.94,0.94,0,0,0,1.06-1,0.91,0.91,0,0,0-1-1,1.49,1.49,0,0,0-.93.32l-0.65-.42,0.18-3.18h3.57v1.23h-2.31l-0.11,1.18a1.57,1.57,0,0,1,.7-0.15,1.84,1.84,0,0,1,2,2,2.17,2.17,0,0,1-2.31,2.2,3,3,0,0,1-2.22-.88Z" transform="translate(-30 -24.18)"/>
  </g>
  <g>
    <path d="M221,386.75c0-2.46-1-4.86-5.16-4.86V380c4.2,0,5.16-2.4,5.16-4.74,0-3.84-.48-8.34-0.48-12.42,0-5.94,2.22-7.68,6.54-7.68h2.16V357h-2c-3.54,0-4.5,1.86-4.5,6.06,0,3.66.36,7.74,0.36,11.52,0,3.54-.66,5.52-3.06,6.24V381c2.4,0.72,3.06,2.82,3.06,6.24,0,4.32-.36,7.62-0.36,11.52,0,4.2,1,6.18,4.5,6.18h2v1.74H227c-4.32,0-6.54-1.62-6.54-7.68C220.5,394.61,221,390.89,221,386.75Z" transform="translate(-30 -24.18)" fill="#999"/>
    <path d="M237.06,378.87a2.74,2.74,0,0,1,0,5.46A2.73,2.73,0,0,1,237.06,378.87Z" transform="translate(-30 -24.18)" fill="#999"/>
    <path d="M250.2,378.87a2.74,2.74,0,0,1,0,5.46A2.73,2.73,0,0,1,250.2,378.87Z" transform="translate(-30 -24.18)" fill="#999"/>
    <path d="M263.34,378.87a2.74,2.74,0,0,1,0,5.46A2.73,2.73,0,0,1,263.34,378.87Z" transform="translate(-30 -24.18)" fill="#999"/>
    <path d="M273,405c3.66,0,4.62-2,4.62-6.18,0-3.9-.36-7.2-0.36-11.52,0-3.42.72-5.52,3.06-6.24v-0.24c-2.34-.72-3.06-2.7-3.06-6.24,0-3.78.36-7.86,0.36-11.52,0-4.2-1-6.06-4.62-6.06h-1.86v-1.86h2c4.44,0,6.66,1.74,6.66,7.68,0,4.08-.48,8.58-0.48,12.42,0,2.34,1,4.74,5.16,4.74v1.92c-4.2,0-5.16,2.4-5.16,4.86,0,4.14.48,7.86,0.48,12.3,0,6.06-2.22,7.68-6.66,7.68h-2V405H273Z" transform="translate(-30 -24.18)" fill="#999"/>
  </g>
  <rect x="448.24" y="77.34" width="20.1" height="33.35" fill="#a1ddeb" stroke="#107f9b" stroke-miterlimit="10"/>
  <rect x="515.74" y="89" width="20.1" height="33.35" fill="#44bad8" stroke="#107f9b" stroke-miterlimit="10"/>
  <rect x="577.9" y="112.11" width="20.1" height="33.35" fill="#107f9b" stroke="#0b5567" stroke-miterlimit="10"/>
  <rect x="577.9" y="160.67" width="20.1" height="33.35" fill="#107f9b" stroke="#0b5567" stroke-miterlimit="10"/>
  <rect x="515.74" y="138.52" width="20.1" height="33.35" fill="#44bad8" stroke="#107f9b" stroke-miterlimit="10"/>
  <rect x="448.24" y="188.34" width="20.1" height="33.35" fill="#a1ddeb" stroke="#107f9b" stroke-miterlimit="10"/>
  <rect x="448.24" y="304.82" width="20.1" height="33.35" fill="#f2f2f2" stroke="#666" stroke-miterlimit="10"/>
  <g>
    <line x1="477.92" y1="215.01" x2="573.38" y2="192.48" fill="none" stroke="#15a9ce" stroke-miterlimit="10" stroke-width="2"/>
    <polygon points="482.26 219.26 480.01 209.71 471.59 216.74 482.26 219.26" fill="#15a9ce"/>
  </g>
  <g>
    <line x1="403.75" y1="271.5" x2="421.83" y2="271.5" fill="#de3423" stroke="#de3423" stroke-miterlimit="10" stroke-width="2"/>
    <polygon points="407 276.63 407 266.82 397.19 271.72 407 276.63" fill="#de3423"/>
  </g>
  <polygon points="449 276.63 449 266.82 439.19 271.72 449 276.63" fill="#de3423"/>
  <g>
    <line x1="415.27" y1="62.95" x2="397.19" y2="62.95" fill="#de3423" stroke="#de3423" stroke-miterlimit="10" stroke-width="2"/>
    <polygon points="412 57.82 412 67.63 421.81 62.72 412 57.82" fill="#de3423"/>
  </g>
  <g>
    <line x1="507.81" y1="89.5" x2="470.71" y2="80.91" fill="none" stroke="#15a9ce" stroke-miterlimit="10" stroke-width="2"/>
    <polygon points="505.78 83.76 503.57 93.32 514.24 90.75 505.78 83.76" fill="#15a9ce"/>
  </g>
  <g>
    <line x1="568.87" y1="108.77" x2="539.67" y2="101.54" fill="none" stroke="#15a9ce" stroke-miterlimit="10" stroke-width="2"/>
    <polygon points="566.93 103 564.57 112.53 575.27 110.13 566.93 103" fill="#15a9ce"/>
  </g>
  <g>
    <line x1="568.89" y1="165.71" x2="539.65" y2="158.63" fill="none" stroke="#15a9ce" stroke-miterlimit="10" stroke-width="2"/>
    <polygon points="566.92 159.95 564.61 169.49 575.3 167.03 566.92 159.95" fill="#15a9ce"/>
  </g>
  <g>
    <line x1="546.02" y1="151.31" x2="575.23" y2="144.13" fill="none" stroke="#15a9ce" stroke-miterlimit="10" stroke-width="2"/>
    <polygon points="550.42 155.52 548.07 145.99 539.72 153.09 550.42 155.52" fill="#15a9ce"/>
  </g>
  <g>
    <line x1="505.87" y1="319.78" x2="476.67" y2="312.2" fill="#999" stroke="#999" stroke-miterlimit="10" stroke-width="2.05"/>
    <polygon points="503.93 313.74 501.57 323.72 512.27 321.2 503.93 313.74" fill="#999"/>
  </g>
  <g>
    <line x1="481.01" y1="424.1" x2="510.23" y2="416.6" fill="#999" stroke="#999" stroke-miterlimit="10" stroke-width="2.05"/>
    <polygon points="485.41 428.51 483.08 418.52 474.71 425.97 485.41 428.51" fill="#999"/>
  </g>
  <line x1="434" y1="501.42" x2="434" y2="42.21" stroke="#000" stroke-miterlimit="10" stroke-width="2.1"/>
  <g>
    <line x1="458.29" y1="183.02" x2="458.29" y2="115.15"/>
    <g>
      <line x1="458.29" y1="183.02" x2="458.29" y2="181.02" fill="none" stroke="gray" stroke-linecap="square" stroke-miterlimit="10" stroke-width="2"/>
      <line x1="458.29" y1="176.76" x2="458.29" y2="119.28" fill="none" stroke="gray" stroke-linecap="square" stroke-miterlimit="10" stroke-width="2" stroke-dasharray="4.26 4.26"/>
      <line x1="458.29" y1="117.15" x2="458.29" y2="115.15" fill="none" stroke="gray" stroke-linecap="square" stroke-miterlimit="10" stroke-width="2"/>
    </g>
  </g>
  <g>
    <line x1="458.29" y1="242.15" x2="458.29" y2="225.69"/>
    <g>
      <line x1="458.29" y1="242.15" x2="458.29" y2="240.15" fill="none" stroke="gray" stroke-linecap="square" stroke-miterlimit="10" stroke-width="2"/>
      <line x1="458.29" y1="236" x2="458.29" y2="229.77" fill="none" stroke="gray" stroke-linecap="square" stroke-miterlimit="10" stroke-width="2" stroke-dasharray="4.15 4.15"/>
      <line x1="458.29" y1="227.69" x2="458.29" y2="225.69" fill="none" stroke="gray" stroke-linecap="square" stroke-miterlimit="10" stroke-width="2"/>
    </g>
  </g>
  <line x1="458.29" y1="261.91" x2="458.29" y2="251.45" stroke="#de3423" stroke-linecap="square" stroke-miterlimit="10" stroke-width="2"/>
  <g>
    <line x1="525.79" y1="136.15" x2="525.79" y2="124.69"/>
    <g>
      <line x1="525.79" y1="136.15" x2="525.79" y2="134.65" fill="none" stroke="gray" stroke-linecap="square" stroke-miterlimit="10" stroke-width="2"/>
      <line x1="525.79" y1="131.83" x2="525.79" y2="127.6" fill="none" stroke="gray" stroke-linecap="square" stroke-miterlimit="10" stroke-width="2" stroke-dasharray="2.82 2.82"/>
      <line x1="525.79" y1="126.19" x2="525.79" y2="124.69" fill="none" stroke="gray" stroke-linecap="square" stroke-miterlimit="10" stroke-width="2"/>
    </g>
  </g>
  <g>
    <line x1="525.79" y1="186.15" x2="525.79" y2="174.69"/>
    <g>
      <line x1="525.79" y1="186.15" x2="525.79" y2="184.65" fill="none" stroke="gray" stroke-linecap="square" stroke-miterlimit="10" stroke-width="2"/>
      <line x1="525.79" y1="181.83" x2="525.79" y2="177.6" fill="none" stroke="gray" stroke-linecap="square" stroke-miterlimit="10" stroke-width="2" stroke-dasharray="2.82 2.82"/>
      <line x1="525.79" y1="176.19" x2="525.79" y2="174.69" fill="none" stroke="gray" stroke-linecap="square" stroke-miterlimit="10" stroke-width="2"/>
    </g>
  </g>
  <line x1="632.97" y1="281.82" x2="356" y2="281.82" stroke="#000" stroke-miterlimit="10" stroke-width="2"/>
  <line x1="447.21" y1="501.42" x2="420.79" y2="501.42" stroke="#000" stroke-miterlimit="10" stroke-width="2"/>
  <line x1="447.21" y1="42.21" x2="420.79" y2="42.21" stroke="#000" stroke-miterlimit="10" stroke-width="2"/>
  <path d="M427,192.09c0-7-2.56-13.88-13.76-13.88v-5.48c11.2,0,13.76-6.85,13.76-13.53,0-11-1.28-23.81-1.28-35.46,0-17,5.92-21.93,17.44-21.93h5.76v5.31h-5.28c-9.44,0-12,5.31-12,17.3,0,10.45,1,22.1,1,32.89,0,10.11-1.76,15.76-8.16,17.82v0.68c6.4,2.06,8.16,8.05,8.16,17.82,0,12.33-1,21.76-1,32.89,0,12,2.56,17.64,12,17.64h5.28v5h-5.76c-11.52,0-17.44-4.63-17.44-21.93C425.75,214.53,427,203.91,427,192.09Z" transform="translate(-30 -24.18)" fill="#de3423"/>
  <path d="M480,274.55l5.92-6-5.92-6,2.36-2.4,5.92,6.08,6-6.08,2.36,2.4-6,6,6,6-2.36,2.4-6-6-5.92,6Z" transform="translate(-30 -24.18)" fill="#ff931e"/>
  <g>
    <line x1="458.29" y1="553.15" x2="458.29" y2="527.69"/>
    <g>
      <line x1="458.29" y1="553.15" x2="458.29" y2="551.15" fill="none" stroke="gray" stroke-linecap="square" stroke-miterlimit="10" stroke-width="2"/>
      <line x1="458.29" y1="546.86" x2="458.29" y2="531.84" fill="none" stroke="gray" stroke-linecap="square" stroke-miterlimit="10" stroke-width="2" stroke-dasharray="4.29 4.29"/>
      <line x1="458.29" y1="529.69" x2="458.29" y2="527.69" fill="none" stroke="gray" stroke-linecap="square" stroke-miterlimit="10" stroke-width="2"/>
    </g>
  </g>
  <path d="M480,585.55l5.92-6-5.92-6,2.36-2.4,5.92,6.08,6-6.08,2.36,2.4-6,6,6,6-2.36,2.4-6-6-5.92,6Z" transform="translate(-30 -24.18)" fill="#ff931e"/>
  <g>
    <line x1="458.29" y1="423.27" x2="458.29" y2="342.81"/>
    <g>
      <line x1="458.29" y1="423.27" x2="458.29" y2="421.27" fill="none" stroke="gray" stroke-linecap="square" stroke-miterlimit="10" stroke-width="2"/>
      <line x1="458.29" y1="417.24" x2="458.29" y2="346.82" fill="none" stroke="gray" stroke-linecap="square" stroke-miterlimit="10" stroke-width="2" stroke-dasharray="4.02 4.02"/>
      <line x1="458.29" y1="344.81" x2="458.29" y2="342.81" fill="none" stroke="gray" stroke-linecap="square" stroke-miterlimit="10" stroke-width="2"/>
    </g>
  </g>
  <path d="M480,455.67l5.92-6-5.92-6,2.36-2.4,5.92,6.08,6-6.08,2.36,2.4-6,6,6,6-2.36,2.4-6-6-5.92,6Z" transform="translate(-30 -24.18)" fill="#ff931e"/>
  <g>
    <path d="M502.42,496.06h-3.6v-2.48h10.12v2.48h-3.58v10.56h-2.94V496.06Z" transform="translate(-30 -24.18)" fill="#15a9ce"/>
    <path d="M510.73,492.6h2.94V496l-0.14,1.78a4.56,4.56,0,0,1,3.06-1.36c2.16,0,3.08,1.52,3.08,4v6.16h-2.94v-5.78c0-1.44-.38-1.88-1.22-1.88a2.51,2.51,0,0,0-1.84,1v6.7h-2.94v-14Z" transform="translate(-30 -24.18)" fill="#15a9ce"/>
    <path d="M522.16,496.71h2.4l0.2,1.74h0.08a3.32,3.32,0,0,1,2.82-2,2.85,2.85,0,0,1,1.18.2l-0.48,2.54a3.72,3.72,0,0,0-1.08-.16,2.46,2.46,0,0,0-2.18,1.82v5.76h-2.94v-9.92Z" transform="translate(-30 -24.18)" fill="#15a9ce"/>
    <path d="M534,496.46c2.82,0,4.22,2.06,4.22,4.76a5.79,5.79,0,0,1-.12,1.24h-5.94a2.4,2.4,0,0,0,2.58,2.16,4,4,0,0,0,2.14-.66l1,1.78a6.49,6.49,0,0,1-3.52,1.12A5.22,5.22,0,0,1,534,496.46Zm1.72,4.18c0-1.14-.48-1.94-1.66-1.94a2,2,0,0,0-1.92,1.94h3.58Z" transform="translate(-30 -24.18)" fill="#15a9ce"/>
    <path d="M545.28,500.25a1.38,1.38,0,0,0-1.56-1.44,5.34,5.34,0,0,0-2.64.9l-1-1.94a8.2,8.2,0,0,1,4.24-1.3c2.54,0,3.94,1.44,3.94,4.48v5.68h-2.4l-0.22-1h-0.06a4.36,4.36,0,0,1-2.9,1.26,2.85,2.85,0,0,1-2.94-3C539.7,501.79,541.36,500.65,545.28,500.25Zm-1.64,4.34a2.21,2.21,0,0,0,1.64-.84V502c-2.1.28-2.78,0.88-2.78,1.64A1,1,0,0,0,543.64,504.59Z" transform="translate(-30 -24.18)" fill="#15a9ce"/>
    <path d="M554.33,496.46a3.25,3.25,0,0,1,2.44,1L556.66,496V492.6h2.94v14h-2.4l-0.2-1h-0.08a3.93,3.93,0,0,1-2.64,1.22c-2.46,0-4.06-2-4.06-5.2S552.24,496.46,554.33,496.46Zm0.7,8a1.86,1.86,0,0,0,1.62-.9v-4.06a2.35,2.35,0,0,0-1.64-.64c-0.94,0-1.78.88-1.78,2.76S553.9,504.47,555,504.47Z" transform="translate(-30 -24.18)" fill="#15a9ce"/>
    <path d="M566.51,493.58h2.94v7.3c0,2.56.8,3.44,2.26,3.44s2.32-.88,2.32-3.44v-7.3h2.84v7c0,4.38-1.78,6.28-5.16,6.28s-5.2-1.9-5.2-6.28v-7Z" transform="translate(-30 -24.18)" fill="#15a9ce"/>
    <path d="M579.89,503.65a4.28,4.28,0,0,0,2.56,1c0.88,0,1.26-.32,1.26-0.84s-1-1-2-1.36c-1.2-.46-2.62-1.28-2.62-2.92,0-1.84,1.5-3.1,3.8-3.1a5.71,5.71,0,0,1,3.5,1.26l-1.32,1.76a3.66,3.66,0,0,0-2.1-.84c-0.76,0-1.12.28-1.12,0.78s0.92,0.88,1.94,1.26c1.26,0.46,2.68,1.16,2.68,3s-1.42,3.2-4.08,3.2a6.41,6.41,0,0,1-3.8-1.38Z" transform="translate(-30 -24.18)" fill="#15a9ce"/>
    <path d="M593.54,500.25a1.38,1.38,0,0,0-1.56-1.44,5.34,5.34,0,0,0-2.64.9l-1-1.94a8.2,8.2,0,0,1,4.24-1.3c2.54,0,3.94,1.44,3.94,4.48v5.68h-2.4l-0.22-1H593.8a4.36,4.36,0,0,1-2.9,1.26,2.85,2.85,0,0,1-2.94-3C588,501.79,589.62,500.65,593.54,500.25Zm-1.64,4.34a2.21,2.21,0,0,0,1.64-.84V502c-2.1.28-2.78,0.88-2.78,1.64A1,1,0,0,0,591.9,504.59Z" transform="translate(-30 -24.18)" fill="#15a9ce"/>
    <path d="M599.79,506.33v-0.08a1.9,1.9,0,0,1-.92-1.68,2.4,2.4,0,0,1,1.12-1.86v-0.08a3.18,3.18,0,0,1-1.34-2.58c0-2.38,2-3.58,4.1-3.58a4.61,4.61,0,0,1,1.54.24h3.62v2.14h-1.58a2.65,2.65,0,0,1,.32,1.3c0,2.28-1.72,3.34-3.9,3.34a3.94,3.94,0,0,1-1.2-.2,0.84,0.84,0,0,0-.36.74c0,0.5.4,0.74,1.5,0.74h1.6c2.44,0,3.78.74,3.78,2.52,0,2.06-2.14,3.56-5.54,3.56-2.32,0-4.16-.76-4.16-2.52A2.33,2.33,0,0,1,599.79,506.33ZM603,509c1.32,0,2.28-.54,2.28-1.22s-0.54-.78-1.52-0.78h-1a5.77,5.77,0,0,1-1.4-.12,1.3,1.3,0,0,0-.54,1C600.79,508.61,601.67,509,603,509Zm1.12-9a1.38,1.38,0,1,0-2.72,0A1.39,1.39,0,1,0,604.12,500Z" transform="translate(-30 -24.18)" fill="#15a9ce"/>
    <path d="M613.42,496.46c2.82,0,4.22,2.06,4.22,4.76a5.85,5.85,0,0,1-.12,1.24h-5.94a2.4,2.4,0,0,0,2.58,2.16,4,4,0,0,0,2.14-.66l1,1.78a6.49,6.49,0,0,1-3.52,1.12A5.22,5.22,0,0,1,613.42,496.46Zm1.72,4.18c0-1.14-.48-1.94-1.66-1.94a2,2,0,0,0-1.92,1.94h3.58Z" transform="translate(-30 -24.18)" fill="#15a9ce"/>
  </g>
  <g>
    <path d="M506.92,568.13l-2.5-4.7h-1.6v4.7h-3v-13h4.7c2.76,0,5,1,5,4.06a3.84,3.84,0,0,1-2.32,3.76l2.94,5.22h-3.3Zm-4.1-7h1.5c1.54,0,2.38-.66,2.38-1.94s-0.84-1.72-2.38-1.72h-1.5v3.66Z" transform="translate(-30 -24.18)" fill="gray"/>
    <path d="M515.84,558c2.82,0,4.22,2.06,4.22,4.76a5.79,5.79,0,0,1-.12,1.24H514a2.4,2.4,0,0,0,2.58,2.16,4,4,0,0,0,2.14-.66l1,1.78a6.49,6.49,0,0,1-3.52,1.12A5.22,5.22,0,0,1,515.84,558Zm1.72,4.18c0-1.14-.48-1.94-1.66-1.94a2,2,0,0,0-1.92,1.94h3.58Z" transform="translate(-30 -24.18)" fill="gray"/>
    <path d="M522.54,565.15a4.28,4.28,0,0,0,2.56,1c0.88,0,1.26-.32,1.26-0.84s-1-1-2-1.36c-1.2-.46-2.62-1.28-2.62-2.92,0-1.84,1.5-3.1,3.8-3.1a5.71,5.71,0,0,1,3.5,1.26L527.7,561a3.66,3.66,0,0,0-2.1-.84c-0.76,0-1.12.28-1.12,0.78s0.92,0.88,1.94,1.26c1.26,0.46,2.68,1.16,2.68,3s-1.42,3.2-4.08,3.2a6.4,6.4,0,0,1-3.8-1.38Z" transform="translate(-30 -24.18)" fill="gray"/>
    <path d="M535.21,558a5.21,5.21,0,1,1-4.84,5.2A4.86,4.86,0,0,1,535.21,558Zm0,8c1.2,0,1.82-1.1,1.82-2.82s-0.62-2.82-1.82-2.82-1.82,1.1-1.82,2.82S534,566,535.21,566Z" transform="translate(-30 -24.18)" fill="gray"/>
    <path d="M542,558.21h2.94V564c0,1.42.38,1.88,1.24,1.88a2,2,0,0,0,1.76-1.1v-6.56h2.94v9.92h-2.4l-0.22-1.38h-0.06a3.87,3.87,0,0,1-3.12,1.62c-2.16,0-3.08-1.52-3.08-4v-6.16Z" transform="translate(-30 -24.18)" fill="gray"/>
    <path d="M553.41,558.21h2.4l0.2,1.74h0.08a3.32,3.32,0,0,1,2.82-2,2.85,2.85,0,0,1,1.18.2l-0.48,2.54a3.72,3.72,0,0,0-1.08-.16,2.46,2.46,0,0,0-2.18,1.82v5.76h-2.94v-9.92Z" transform="translate(-30 -24.18)" fill="gray"/>
    <path d="M565.75,558a4,4,0,0,1,2.9,1.14l-1.34,1.82a2.12,2.12,0,0,0-1.38-.58c-1.42,0-2.32,1.1-2.32,2.82s0.94,2.82,2.22,2.82a2.86,2.86,0,0,0,1.78-.72l1.18,1.86a5.15,5.15,0,0,1-3.3,1.24c-2.76,0-4.9-1.9-4.9-5.2A5,5,0,0,1,565.75,558Z" transform="translate(-30 -24.18)" fill="gray"/>
    <path d="M574.06,558c2.82,0,4.22,2.06,4.22,4.76a5.85,5.85,0,0,1-.12,1.24h-5.94a2.4,2.4,0,0,0,2.58,2.16,4,4,0,0,0,2.14-.66l1,1.78a6.49,6.49,0,0,1-3.52,1.12A5.22,5.22,0,0,1,574.06,558Zm1.72,4.18c0-1.14-.48-1.94-1.66-1.94a2,2,0,0,0-1.92,1.94h3.58Z" transform="translate(-30 -24.18)" fill="gray"/>
    <path d="M584.69,555.08h3v10.56h5.14v2.48h-8.1v-13Z" transform="translate(-30 -24.18)" fill="gray"/>
    <path d="M594.55,555.2a1.71,1.71,0,1,1,1.7,1.54A1.56,1.56,0,0,1,594.55,555.2Zm0.24,3h2.94v9.92h-2.94v-9.92Z" transform="translate(-30 -24.18)" fill="gray"/>
    <path d="M605.91,556.38a3.18,3.18,0,0,0-1-.2c-0.72,0-1.14.4-1.14,1.42v0.6h1.78v2.3h-1.78v7.62h-2.94V560.5h-1.32v-2.18l1.32-.1v-0.54c0-2.1,1-3.82,3.66-3.82a5.93,5.93,0,0,1,2,.36Z" transform="translate(-30 -24.18)" fill="gray"/>
    <path d="M611,558c2.82,0,4.22,2.06,4.22,4.76a5.79,5.79,0,0,1-.12,1.24h-5.94a2.4,2.4,0,0,0,2.58,2.16,4,4,0,0,0,2.14-.66l1,1.78a6.49,6.49,0,0,1-3.52,1.12A5.22,5.22,0,0,1,611,558Zm1.72,4.18c0-1.14-.48-1.94-1.66-1.94a2,2,0,0,0-1.92,1.94h3.58Z" transform="translate(-30 -24.18)" fill="gray"/>
    <path d="M617.33,560.5H616v-2.18l1.52-.12,0.34-2.64h2.44v2.64h2.38v2.3h-2.38v4c0,1.12.5,1.58,1.28,1.58a2.79,2.79,0,0,0,.94-0.2L623,568a7.14,7.14,0,0,1-2.2.36c-2.46,0-3.42-1.54-3.42-3.84v-4Z" transform="translate(-30 -24.18)" fill="gray"/>
    <path d="M624.35,555.2a1.71,1.71,0,1,1,1.7,1.54A1.56,1.56,0,0,1,624.35,555.2Zm0.24,3h2.94v9.92h-2.94v-9.92Z" transform="translate(-30 -24.18)" fill="gray"/>
    <path d="M630.11,558.21h2.4l0.2,1.28h0.08a4.15,4.15,0,0,1,3-1.52,2.74,2.74,0,0,1,2.74,1.66,4.34,4.34,0,0,1,3.12-1.66c2.14,0,3.1,1.52,3.1,4v6.16h-2.94v-5.78c0-1.44-.38-1.88-1.22-1.88a2.63,2.63,0,0,0-1.7,1v6.7H636v-5.78c0-1.44-.38-1.88-1.22-1.88a2.59,2.59,0,0,0-1.68,1v6.7h-2.94v-9.92Z" transform="translate(-30 -24.18)" fill="gray"/>
    <path d="M651.35,558c2.82,0,4.22,2.06,4.22,4.76a5.79,5.79,0,0,1-.12,1.24h-5.94a2.4,2.4,0,0,0,2.58,2.16,4,4,0,0,0,2.14-.66l1,1.78a6.49,6.49,0,0,1-3.52,1.12A5.22,5.22,0,0,1,651.35,558Zm1.72,4.18c0-1.14-.48-1.94-1.66-1.94a2,2,0,0,0-1.92,1.94h3.58Z" transform="translate(-30 -24.18)" fill="gray"/>
  </g>
  <g>
    <path d="M499.86,25.58H503l2.18,5.86,0.78,2.28H506l0.78-2.28,2.12-5.86H512v13h-2.76V33.85c0-1.28.24-3.18,0.38-4.44h-0.08l-1.06,3-2,5.06h-1.18l-2-5.06-1-3H502.2c0.14,1.26.38,3.16,0.38,4.44v4.78h-2.72v-13Z" transform="translate(-30 -24.18)" fill="#15a9ce"/>
    <path d="M519,28.46c2.82,0,4.22,2.06,4.22,4.76a5.85,5.85,0,0,1-.12,1.24h-5.94a2.4,2.4,0,0,0,2.58,2.16,4,4,0,0,0,2.14-.66l1,1.78a6.49,6.49,0,0,1-3.52,1.12,4.84,4.84,0,0,1-5-5.2A4.87,4.87,0,0,1,519,28.46Zm1.72,4.18c0-1.14-.48-1.94-1.66-1.94a2,2,0,0,0-1.92,1.94h3.58Z" transform="translate(-30 -24.18)" fill="#15a9ce"/>
    <path d="M525.65,35.65a4.28,4.28,0,0,0,2.56,1c0.88,0,1.26-.32,1.26-0.84s-1-1-2-1.36c-1.2-.46-2.62-1.28-2.62-2.92,0-1.84,1.5-3.1,3.8-3.1a5.71,5.71,0,0,1,3.5,1.26l-1.32,1.76a3.66,3.66,0,0,0-2.1-.84c-0.76,0-1.12.28-1.12,0.78s0.92,0.88,1.94,1.26c1.26,0.46,2.68,1.16,2.68,3s-1.42,3.2-4.08,3.2a6.41,6.41,0,0,1-3.8-1.38Z" transform="translate(-30 -24.18)" fill="#15a9ce"/>
    <path d="M534.51,35.65a4.28,4.28,0,0,0,2.56,1c0.88,0,1.26-.32,1.26-0.84s-1-1-2-1.36c-1.2-.46-2.62-1.28-2.62-2.92,0-1.84,1.5-3.1,3.8-3.1a5.71,5.71,0,0,1,3.5,1.26l-1.32,1.76a3.66,3.66,0,0,0-2.1-.84c-0.76,0-1.12.28-1.12,0.78s0.92,0.88,1.94,1.26c1.26,0.46,2.68,1.16,2.68,3s-1.42,3.2-4.08,3.2a6.4,6.4,0,0,1-3.8-1.38Z" transform="translate(-30 -24.18)" fill="#15a9ce"/>
    <path d="M548.16,32.25a1.38,1.38,0,0,0-1.56-1.44,5.35,5.35,0,0,0-2.64.9l-1-1.94a8.21,8.21,0,0,1,4.24-1.3c2.54,0,3.94,1.44,3.94,4.48v5.68h-2.4l-0.22-1h-0.06a4.36,4.36,0,0,1-2.9,1.26,2.85,2.85,0,0,1-2.94-3C542.57,33.79,544.23,32.65,548.16,32.25Zm-1.64,4.34a2.21,2.21,0,0,0,1.64-.84V34c-2.1.28-2.78,0.88-2.78,1.64A1,1,0,0,0,546.51,36.59Z" transform="translate(-30 -24.18)" fill="#15a9ce"/>
    <path d="M554.41,38.33V38.25a1.9,1.9,0,0,1-.92-1.68,2.4,2.4,0,0,1,1.12-1.86V34.63A3.18,3.18,0,0,1,553.27,32c0-2.38,2-3.58,4.1-3.58a4.61,4.61,0,0,1,1.54.24h3.62v2.14H561a2.65,2.65,0,0,1,.32,1.3c0,2.28-1.72,3.34-3.9,3.34a3.93,3.93,0,0,1-1.2-.2,0.84,0.84,0,0,0-.36.74c0,0.5.4,0.74,1.5,0.74h1.6c2.44,0,3.78.74,3.78,2.52,0,2.06-2.14,3.56-5.54,3.56-2.32,0-4.16-.76-4.16-2.52A2.33,2.33,0,0,1,554.41,38.33Zm3.2,2.68c1.32,0,2.28-.54,2.28-1.22S559.36,39,558.38,39h-1a5.77,5.77,0,0,1-1.4-.12,1.3,1.3,0,0,0-.54,1C555.41,40.61,556.29,41,557.62,41Zm1.12-9A1.38,1.38,0,1,0,556,32,1.39,1.39,0,1,0,558.74,32Z" transform="translate(-30 -24.18)" fill="#15a9ce"/>
    <path d="M564.05,25.7a1.71,1.71,0,1,1,1.7,1.54A1.56,1.56,0,0,1,564.05,25.7Zm0.24,3h2.94v9.92h-2.94V28.71Z" transform="translate(-30 -24.18)" fill="#15a9ce"/>
    <path d="M569.81,28.71h2.4l0.2,1.26h0.08a4.57,4.57,0,0,1,3.18-1.5c2.16,0,3.08,1.52,3.08,4v6.16h-2.94V32.85c0-1.44-.38-1.88-1.22-1.88a2.51,2.51,0,0,0-1.84,1v6.7h-2.94V28.71Z" transform="translate(-30 -24.18)" fill="#15a9ce"/>
    <path d="M582.05,38.33V38.25a1.9,1.9,0,0,1-.92-1.68,2.4,2.4,0,0,1,1.12-1.86V34.63A3.18,3.18,0,0,1,580.91,32c0-2.38,2-3.58,4.1-3.58a4.61,4.61,0,0,1,1.54.24h3.62v2.14H588.6a2.65,2.65,0,0,1,.32,1.3c0,2.28-1.72,3.34-3.9,3.34a3.93,3.93,0,0,1-1.2-.2,0.84,0.84,0,0,0-.36.74c0,0.5.4,0.74,1.5,0.74h1.6c2.44,0,3.78.74,3.78,2.52,0,2.06-2.14,3.56-5.54,3.56-2.32,0-4.16-.76-4.16-2.52A2.33,2.33,0,0,1,582.05,38.33Zm3.2,2.68c1.32,0,2.28-.54,2.28-1.22S587,39,586,39h-1a5.77,5.77,0,0,1-1.4-.12,1.3,1.3,0,0,0-.54,1C583.05,40.61,583.93,41,585.25,41Zm1.12-9a1.38,1.38,0,1,0-2.72,0A1.39,1.39,0,1,0,586.38,32Z" transform="translate(-30 -24.18)" fill="#15a9ce"/>
  </g>
  <g>
    <path d="M398.47,170.23h-3.06v-2.11H404v2.11h-3v9h-2.5v-9Z" transform="translate(-30 -24.18)"/>
    <path d="M405.13,183.68h1.37V180h-1.18v-0.9a4.39,4.39,0,0,0,1.57-.58H408v5.12h1.18v1.18h-4v-1.18Z" transform="translate(-30 -24.18)"/>
  </g>
  <g>
    <path d="M577,386.75c0-2.46-1-4.86-5.16-4.86V380c4.2,0,5.16-2.4,5.16-4.74,0-3.84-.48-8.34-0.48-12.42,0-5.94,2.22-7.68,6.54-7.68h2.16V357h-2c-3.54,0-4.5,1.86-4.5,6.06,0,3.66.36,7.74,0.36,11.52,0,3.54-.66,5.52-3.06,6.24V381c2.4,0.72,3.06,2.82,3.06,6.24,0,4.32-.36,7.62-0.36,11.52,0,4.2,1,6.18,4.5,6.18h2v1.74H583c-4.32,0-6.54-1.62-6.54-7.68C576.5,394.61,577,390.89,577,386.75Z" transform="translate(-30 -24.18)" fill="#999"/>
    <path d="M593.06,378.87a2.74,2.74,0,0,1,0,5.46A2.73,2.73,0,0,1,593.06,378.87Z" transform="translate(-30 -24.18)" fill="#999"/>
    <path d="M606.2,378.87a2.74,2.74,0,0,1,0,5.46A2.73,2.73,0,0,1,606.2,378.87Z" transform="translate(-30 -24.18)" fill="#999"/>
    <path d="M619.34,378.87a2.74,2.74,0,0,1,0,5.46A2.73,2.73,0,0,1,619.34,378.87Z" transform="translate(-30 -24.18)" fill="#999"/>
    <path d="M629,405c3.66,0,4.62-2,4.62-6.18,0-3.9-.36-7.2-0.36-11.52,0-3.42.72-5.52,3.06-6.24v-0.24c-2.34-.72-3.06-2.7-3.06-6.24,0-3.78.36-7.86,0.36-11.52,0-4.2-1-6.06-4.62-6.06h-1.86v-1.86h2c4.44,0,6.66,1.74,6.66,7.68,0,4.08-.48,8.58-0.48,12.42,0,2.34,1,4.74,5.16,4.74v1.92c-4.2,0-5.16,2.4-5.16,4.86,0,4.14.48,7.86,0.48,12.3,0,6.06-2.22,7.68-6.66,7.68h-2V405H629Z" transform="translate(-30 -24.18)" fill="#999"/>
  </g>
  <g>
    <line x1="621.27" y1="127.95" x2="603.19" y2="127.95" fill="#de3423" stroke="#15a9ce" stroke-miterlimit="10" stroke-width="2"/>
    <polygon points="618 122.82 618 132.63 627.81 127.72 618 122.82" fill="#15a9ce"/>
  </g>
  <path d="M547.49,219.89l5.92-6-5.92-6,2.36-2.4,5.92,6.08,6-6.08,2.36,2.4-6,6,6,6-2.36,2.4-6-6-5.92,6Z" transform="translate(-30 -24.18)" fill="#ff931e"/>
  <g>
    <line x1="587.95" y1="209.53" x2="587.95" y2="198.07"/>
    <g>
      <line x1="587.95" y1="209.53" x2="587.95" y2="208.03" fill="none" stroke="gray" stroke-linecap="square" stroke-miterlimit="10" stroke-width="2"/>
      <line x1="587.95" y1="205.21" x2="587.95" y2="200.98" fill="none" stroke="gray" stroke-linecap="square" stroke-miterlimit="10" stroke-width="2" stroke-dasharray="2.82 2.82"/>
      <line x1="587.95" y1="199.57" x2="587.95" y2="198.07" fill="none" stroke="gray" stroke-linecap="square" stroke-miterlimit="10" stroke-width="2"/>
    </g>
  </g>
  <path d="M609.65,243.26l5.92-6-5.92-6,2.36-2.4,5.92,6.08,6-6.08,2.36,2.4-6,6,6,6-2.36,2.4-6-6-5.92,6Z" transform="translate(-30 -24.18)" fill="#ff931e"/>
  <path d="M488.33,286.41a9.85,9.85,0,0,1-9.85,9.85" transform="translate(-30 -24.18)" fill="none" stroke="#de3423" stroke-miterlimit="10" stroke-width="2"/>
</svg>
